<?xml version="1.0"?>
<svg xmlns="http://www.w3.org/2000/svg" id="Layer_1" data-name="Layer 1" viewBox="0 0 512 512" width="512" height="512"><title>graduate boy</title><path d="M115.544,100.2,152,114.268v25.944a7.332,7.332,0,0,0,2,4.384v25.99a24.266,24.266,0,0,0-15.786,17.467,30.814,30.814,0,0,0-.85,7.325A30.182,30.182,0,0,0,157,224.027v6.419a99.566,99.566,0,0,0,61.405,91.938l-.019,10.675a13.1,13.1,0,0,1-3.828,9.215l-2.942,2.932c-16.1,5.188-25.1,8.249-26.677,9.079a33.787,33.787,0,0,0-9.328,7.038l-21.1,9.006q-.195.083-.384.177A57,57,0,0,0,123,416.5c-.017.194,0,.388,0,.581v63.651A7.2,7.2,0,0,0,129.958,488H388.222A7.047,7.047,0,0,0,395,480.734V417.083c0-.193.1-.387.087-.581a56.964,56.964,0,0,0-31.085-46c-.126-.063-.226-.122-.355-.177l-17.552-7.5a32.787,32.787,0,0,0-10.462-8.462c-.716-.381-2.6-1.383-29.13-8.645L303.74,342.9a12.852,12.852,0,0,1-3.74-9.192v-13.82a99.823,99.823,0,0,0,56-89.439v-6.419c11-4.492,19.512-15.739,19.512-28.649a30.879,30.879,0,0,0-.927-7.324,25.671,25.671,0,0,0-1.019-3.119,17.661,17.661,0,0,0,8.415,2.126A17.873,17.873,0,0,0,388,152.38v-49l8.309-3.186c8.274-3.183,9.523-8.395,9.523-11.218s-1.228-8.034-9.5-11.218L270.686,29.417c-8.374-3.221-21-3.221-29.377,0L115.661,77.76c-8.273,3.184-9.567,8.395-9.567,11.218S107.271,97.013,115.544,100.2Zm124.484,47.941A296.99,296.99,0,0,1,166,135.115V119.654ZM343,150.234v20.793c-14,1.408-47.127,3.307-80.879-8.6A312.659,312.659,0,0,0,343,150.234Zm1-15.11a294.052,294.052,0,0,1-72.195,12.926L344,120.273ZM168,150.2c2,.787,5.3,1.542,8.02,2.253a27.286,27.286,0,0,0-2.692,10.137l-.91,14.515-4.144-2.172a.5.5,0,0,1-.274-.463ZM243.5,474,230.26,396.837a111.892,111.892,0,0,0,58.66-.243L276.975,474Zm-60.365-98.538c1-3.323,3.954-6.481,8.135-8.692,1.589-.667,9.683-3.376,18.559-6.271l14.984,87.162c-16.079-25.274-37.241-58.706-40.834-65.2A8.77,8.77,0,0,1,183.137,375.462ZM137,417.386c1-14.568,10.17-27.66,23.223-34.267l8.606-3.677a23.939,23.939,0,0,0,2.909,9.927C176.576,398.12,210.071,451,224.825,474H137Zm244,0V474H295.73c14.7-23,48.1-75.9,52.936-84.647a23.732,23.732,0,0,0,2.86-8.921l6.341,2.721C370.92,389.759,380,402.818,381,417.386Zm-51.7-50.528c4.087,2.2,6.985,5.324,7.967,8.6a8.769,8.769,0,0,1-.854,6.979c-3.645,6.593-25.311,40.922-41.418,66.324l13.588-87.941C318.335,363.531,327.392,366.138,329.3,366.858ZM293.843,352.8l1.6,1.632-4.119,26.551a96.053,96.053,0,0,1-63.714.254l-4.731-27.5,1.562-1.563a27.181,27.181,0,0,0,7.907-19.142l-.013-6.03a99.878,99.878,0,0,0,24.058,2.932A97.921,97.921,0,0,0,286,325.456v8.249A26.761,26.761,0,0,0,293.843,352.8ZM347.7,211.842a6.919,6.919,0,0,0-5.7,6.895v11.709a85.5,85.5,0,0,1-171,0V218.737a7.072,7.072,0,0,0-5.873-6.895,16.818,16.818,0,0,1-13.393-20.458,10.463,10.463,0,0,1,5.867-7.224,14.585,14.585,0,0,0,4.173,3.231l11.16,5.731a8.91,8.91,0,0,0,12.949-7.216c0-.044.006-.089.009-.133l1.36-22.329a13.231,13.231,0,0,1,3.011-7.62,313.042,313.042,0,0,0,36.946,5.441c32.476,20.639,69.308,24.927,94.262,24.927a182.152,182.152,0,0,0,29.274-2.126,6.964,6.964,0,0,0,2.036-.7,10.659,10.659,0,0,1,8.159,8.018,16.9,16.9,0,0,1,.525,3.995A16.635,16.635,0,0,1,347.7,211.842Zm34.27-38.781a3.888,3.888,0,1,1,3.847-3.888A3.872,3.872,0,0,1,381.97,173.061Zm-7.97-19.9a17.653,17.653,0,0,0-9.907,16.01,18.046,18.046,0,0,0,.826,4.429A23.7,23.7,0,0,0,357,169.864v-25.2c1-1.228,1-2.783,1-4.456V114.886l16-6.117ZM246.338,42.484c5.057-1.946,14.267-1.945,19.324,0L386.507,88.978l-5.1,1.962c-.117-.006-.233-.018-.351-.018a6.975,6.975,0,0,0-4.959,2.061l-110.436,42.49c-5.057,1.946-14.267,1.945-19.324,0l-120.845-46.5Z"/></svg>
