<?xml version="1.0"?>
<svg xmlns="http://www.w3.org/2000/svg" id="Layer_1" data-name="Layer 1" viewBox="0 0 512 512" width="512" height="512"><title>ID card</title><path d="M409,53a27,27,0,0,0-27-27H130a27,27,0,0,0-27,27V475a27,27,0,0,0,27,27H382a27,27,0,0,0,27-27ZM395,475a13,13,0,0,1-13,13H130a13,13,0,0,1-13-13V53a13,13,0,0,1,13-13H382a13,13,0,0,1,13,13Z"/><path d="M204.4,86H307.6c10.476,0,19-7.829,19-17.5S318.076,51,307.6,51H204.4c-10.476,0-19,7.829-19,17.5S193.923,86,204.4,86Zm0-21H307.6c2.946,0,5,1.826,5,3.5s-2.054,3.5-5,3.5H204.4c-2.946,0-5-1.826-5-3.5S201.453,65,204.4,65Z"/><path d="M352,118a11,11,0,0,0-11-11H170a11,11,0,0,0-11,11V306a11,11,0,0,0,11,11H341a11,11,0,0,0,11-11ZM188.722,303c1.579-23,11.189-41.382,27.564-51.43,10.5,8.452,26.86,14.625,39.717,14.625s29.214-6.166,39.711-14.618C312.09,261.626,321.7,280,323.279,303ZM173,121H338V303h-.7c-1.862-31-16-54.492-39.431-66.236a7,7,0,0,0-8.183,1.393c-7.31,7.61-22.733,14.03-33.679,14.03s-26.374-6.432-33.685-14.041a6.991,6.991,0,0,0-8.183-1.38C190.7,248.51,176.568,272,174.705,303H173Z"/><path d="M349,357a7,7,0,0,0-7-7H169a7,7,0,0,0,0,14H342A7,7,0,0,0,349,357Z"/><path d="M184,391a7,7,0,0,0,0,14H327a7,7,0,0,0,0-14Z"/><path d="M357,431H154a7,7,0,0,0,0,14H357a7,7,0,0,0,0-14Z"/><path d="M256,244.9a43.25,43.25,0,1,0-43.117-43.25A43.23,43.23,0,0,0,256,244.9Zm0-72.5a29.25,29.25,0,1,1-29.117,29.25A29.214,29.214,0,0,1,256,172.4Z"/></svg>
