<?xml version="1.0"?>
<svg xmlns="http://www.w3.org/2000/svg" id="Layer_1" data-name="Layer 1" viewBox="0 0 512 512" width="512" height="512"><title>e-book</title><path d="M120,273H392a7.078,7.078,0,0,0,6.907-8.213l-20-121.69A7.211,7.211,0,0,0,372,137H354.554l-5.647-34.066A6.916,6.916,0,0,0,341.48,97.2c-1.183.088-29.315,2.442-56.621,22.47-10.757,7.892-22.033,19.65-28.589,26.873-1.371-1.664-3.013-3.6-4.841-5.681-8.119-9.251-15.638-16.375-22.35-21.187C199.7,98.616,171.432,97.339,170.242,97.3a6.8,6.8,0,0,0-7.167,5.638L157.429,137H140a7.2,7.2,0,0,0-6.907,6.085l-20,121.566a7.234,7.234,0,0,0,1.57,5.773A7.1,7.1,0,0,0,120,273ZM366.059,151l17.694,108H281.674c20.34-11,33.161-16.059,44.544-19.863,16.5-5.51,35.863-6.361,36.054-6.369a7.011,7.011,0,0,0,5.152-2.581,7.526,7.526,0,0,0,1.483-5.791L356.858,151Zm-72.918-19.983a110.012,110.012,0,0,1,43.073-18.777l5.015,30.455a6.928,6.928,0,0,0,.919,5.586l11.7,71.067c-7.865.788-20.41,2.565-32.07,6.461-14.125,4.719-30.315,10.807-58.782,27.661v-93.4C267.608,154.8,281.03,139.9,293.141,131.017Zm-72.22.044c11.7,8.386,24.1,23.721,28.079,28.826V253.48c-28.477-16.862-44.672-22.951-58.8-27.671-11.66-3.9-24.2-5.673-32.069-6.461l11.695-71.027a6.932,6.932,0,0,0,.934-5.668l5.042-30.617A110.018,110.018,0,0,1,220.921,131.061ZM145.941,151h9.183l-12.049,73.389a7.251,7.251,0,0,0,1.484,5.674,7.058,7.058,0,0,0,5.152,2.625c.193.007,19.5.89,36.054,6.422,11.383,3.8,24.2,8.89,44.544,19.89H128.247Z"/><path d="M73.559,369H193v70H166.111a7,7,0,0,0,0,14H351.152a7,7,0,1,0,0-14H319V369H438.441C458.428,369,475,352.91,475,332.923V95.246C475,75.26,458.428,59,438.441,59H73.559C53.572,59,37,75.26,37,95.246V332.923C37,352.91,53.572,369,73.559,369ZM305,439H207V369h98Zm133.441-84H73.559C61.292,355,51,345.19,51,332.923V313H461v19.923C461,345.19,450.708,355,438.441,355ZM73.559,73H438.441A22.541,22.541,0,0,1,461,95.246V299H51V95.246A22.541,22.541,0,0,1,73.559,73Z"/></svg>
